<?xml version="1.0" encoding="utf-8"?>
<!-- Generator: Adobe Illustrator 21.0.0, SVG Export Plug-In . SVG Version: 6.00 Build 0)  -->
<svg version="1.1" xmlns="http://www.w3.org/2000/svg" xmlns:xlink="http://www.w3.org/1999/xlink" x="0px" y="0px"
	 viewBox="0 0 1920 1080" style="enable-background:new 0 0 1920 1080;" xml:space="preserve">
<style type="text/css">
	.st0{opacity:0.6;fill:#FFFFFF;}
	.st1{fill:url(#SVGID_1_);}
	.st2{opacity:0.6;}
	.st3{fill:#005BEA;}
	.st4{fill:url(#SVGID_2_);}
	.st5{fill:url(#SVGID_3_);}
	.st6{fill:url(#SVGID_4_);}
	.st7{fill:url(#SVGID_5_);}
	.st8{opacity:0.6;fill:#005BEA;}
	.st9{fill:url(#SVGID_6_);}
	.st10{fill:url(#SVGID_7_);}
	.st11{fill:url(#SVGID_8_);}
	.st12{fill:url(#SVGID_9_);}
	.st13{fill:url(#SVGID_10_);}
	.st14{fill:url(#SVGID_11_);}
	.st15{fill:url(#SVGID_12_);}
	.st16{fill:url(#SVGID_13_);}
	.st17{fill:url(#SVGID_14_);}
	.st18{fill:url(#SVGID_15_);}
	.st19{fill:url(#SVGID_16_);}
	.st20{fill:url(#SVGID_17_);}
	.st21{fill:url(#SVGID_18_);}
</style>
<g id="Layer_2">
	<rect class="st0" width="1920" height="1080"/>
</g>
<g id="Layer_1">
	<g>
		<linearGradient id="SVGID_1_" gradientUnits="userSpaceOnUse" x1="1381.7842" y1="193.2266" x2="1381.7842" y2="169.4374">
			<stop  offset="0" style="stop-color:#005BEA"/>
			<stop  offset="1" style="stop-color:#00BDF9"/>
		</linearGradient>
		<path class="st1" d="M1380.6,193.2c-5.2,0-10.2-2.6-13.2-7.3l3.4-2.2c1.6,2.6,4.2,4.4,7.2,5.1c3,0.7,6.1,0.2,8.7-1.5
			c5.4-3.4,7-10.5,3.6-15.8l3.4-2.2c4.6,7.2,2.4,16.8-4.9,21.4C1386.3,192.5,1383.4,193.2,1380.6,193.2z"/>
	</g>
	<g>
		<linearGradient id="SVGID_2_" gradientUnits="userSpaceOnUse" x1="196.0663" y1="897.3167" x2="196.0663" y2="840.9539">
			<stop  offset="0" style="stop-color:#005BEA"/>
			<stop  offset="1" style="stop-color:#00BDF9"/>
		</linearGradient>
		<path class="st4" d="M181.6,897.3c-13.5-11.2-15.5-31.3-4.3-44.8c5.4-6.6,13-10.6,21.5-11.4c8.5-0.8,16.7,1.7,23.3,7.1l-5.3,6.4
			c-4.8-4-10.9-5.9-17.2-5.3c-6.3,0.6-11.9,3.6-15.9,8.4c-8.3,10-6.8,24.9,3.2,33.1L181.6,897.3z"/>
	</g>
	<g>
		<linearGradient id="SVGID_3_" gradientUnits="userSpaceOnUse" x1="1437.0551" y1="749.7764" x2="1437.0551" y2="693.4136">
			<stop  offset="0" style="stop-color:#005BEA"/>
			<stop  offset="1" style="stop-color:#00BDF9"/>
		</linearGradient>
		<path class="st5" d="M1422.6,749.8c-13.5-11.2-15.5-31.3-4.3-44.8c5.4-6.6,13-10.6,21.5-11.4c8.5-0.8,16.7,1.7,23.3,7.1l-5.3,6.4
			c-4.8-4-10.9-5.9-17.2-5.3c-6.3,0.6-11.9,3.6-15.9,8.4c-8.3,10-6.8,24.9,3.2,33.1L1422.6,749.8z"/>
	</g>
	<linearGradient id="SVGID_4_" gradientUnits="userSpaceOnUse" x1="991.4629" y1="827.5471" x2="991.4629" y2="792.8671">
		<stop  offset="0" style="stop-color:#005BEA"/>
		<stop  offset="1" style="stop-color:#00BDF9"/>
	</linearGradient>
	<path class="st6" d="M991.4,798.2L991.4,798.2c4.6,0,8.7,2.5,10.7,6.6c1.4,2.9,1.7,6.1,0.7,9.1c-1,3-3.1,5.5-6,7
		c-1.7,0.9-3.5,1.3-5.4,1.3c-4.6,0-8.7-2.5-10.7-6.6c-3-5.9-0.6-13.1,5.3-16.1C987.7,798.6,989.6,798.2,991.4,798.2 M991.4,792.9
		c-2.6,0-5.3,0.6-7.8,1.9c-8.5,4.3-12,14.8-7.6,23.3c3.1,6,9.2,9.5,15.5,9.5c2.6,0,5.3-0.6,7.8-1.9c8.5-4.3,12-14.8,7.6-23.3
		C1003.9,796.3,997.8,792.9,991.4,792.9L991.4,792.9z"/>
	<linearGradient id="SVGID_5_" gradientUnits="userSpaceOnUse" x1="308.8766" y1="616.5952" x2="308.8766" y2="578.7873">
		<stop  offset="0" style="stop-color:#005BEA"/>
		<stop  offset="1" style="stop-color:#00BDF9"/>
	</linearGradient>
	<path class="st7" d="M308.9,584.6L308.9,584.6c2.9,0,5.7,1,8.1,2.8c2.7,2.2,4.5,5.2,4.9,8.7c0.4,3.5-0.5,6.9-2.7,9.6
		c-2.5,3.2-6.2,5-10.3,5c-2.9,0-5.7-1-8.1-2.8c-5.7-4.4-6.7-12.7-2.2-18.4C301.1,586.4,304.8,584.6,308.9,584.6 M308.9,578.8
		c-5.6,0-11.2,2.5-14.9,7.2c-6.4,8.2-5,20.1,3.2,26.5c3.5,2.7,7.6,4,11.6,4c5.6,0,11.2-2.5,14.9-7.2c6.4-8.2,5-20.1-3.2-26.5
		C317.1,580.1,313,578.8,308.9,578.8L308.9,578.8z"/>
	<linearGradient id="SVGID_6_" gradientUnits="userSpaceOnUse" x1="222.0938" y1="244.9477" x2="222.0938" y2="197.1937">
		<stop  offset="0" style="stop-color:#005BEA"/>
		<stop  offset="1" style="stop-color:#00BDF9"/>
	</linearGradient>
	<path class="st9" d="M222.1,204.6L222.1,204.6c6.9,0,13.1,4.4,15.5,10.9c3.1,8.6-1.3,18-9.9,21.2c-1.8,0.7-3.7,1-5.6,1
		c-6.9,0-13.1-4.4-15.5-10.9c-1.5-4.1-1.3-8.6,0.5-12.6c1.9-4,5.2-7,9.3-8.5C218.3,204.9,220.2,204.6,222.1,204.6 M222.1,197.2
		c-2.7,0-5.5,0.5-8.2,1.5c-12.4,4.5-18.8,18.2-14.3,30.6c3.5,9.7,12.7,15.7,22.4,15.7c2.7,0,5.5-0.5,8.2-1.5
		c12.4-4.5,18.8-18.2,14.3-30.6C241,203.2,231.8,197.2,222.1,197.2L222.1,197.2z"/>
	<linearGradient id="SVGID_7_" gradientUnits="userSpaceOnUse" x1="975.7314" y1="124.1292" x2="975.7314" y2="61.1956">
		<stop  offset="0" style="stop-color:#005BEA"/>
		<stop  offset="1" style="stop-color:#00BDF9"/>
	</linearGradient>
	<path class="st10" d="M969.8,73.2l15.6,16.5l-3.9,22.4L966,95.6L969.8,73.2 M966.2,61.2L960,97.4l25.2,26.7l6.2-36.2L966.2,61.2
		L966.2,61.2z"/>
	<linearGradient id="SVGID_8_" gradientUnits="userSpaceOnUse" x1="483.9203" y1="805.4084" x2="483.9203" y2="716.7963">
		<stop  offset="0" style="stop-color:#005BEA"/>
		<stop  offset="1" style="stop-color:#00BDF9"/>
	</linearGradient>
	<path class="st11" d="M475.4,733.7l22.3,23.1l-5.2,31.7l-22.3-23.1L475.4,733.7 M470.1,716.8l-8.3,51.2l36,37.4l8.3-51.2
		L470.1,716.8L470.1,716.8z"/>
	<g>
		<linearGradient id="SVGID_9_" gradientUnits="userSpaceOnUse" x1="153.542" y1="507.968" x2="153.542" y2="446.6385">
			<stop  offset="0" style="stop-color:#005BEA"/>
			<stop  offset="1" style="stop-color:#00BDF9"/>
		</linearGradient>
		<path class="st12" d="M155.7,508c-0.8,0-1.6-0.3-2.2-0.8c-3.6-2.9-5.7-6.9-6-11.4c-0.3-4.4,1.4-8.7,4.6-12
			c1.8-1.8,2.7-4.2,2.5-6.6c-0.1-2.4-1.3-4.6-3.3-6.2c-3.6-2.9-5.7-6.9-6-11.4c-0.3-4.4,1.4-8.7,4.6-12c1.4-1.4,3.7-1.4,5.1-0.1
			c1.4,1.4,1.4,3.6,0.1,5.1c-1.8,1.8-2.7,4.1-2.5,6.5c0.1,2.4,1.3,4.6,3.3,6.2c3.6,2.9,5.7,6.9,5.9,11.4c0.3,4.4-1.4,8.7-4.6,12
			c-1.8,1.8-2.7,4.1-2.5,6.6c0.1,2.4,1.3,4.6,3.3,6.2c1.5,1.2,1.8,3.5,0.5,5C157.8,507.5,156.7,508,155.7,508z"/>
	</g>
	<g>
		<linearGradient id="SVGID_10_" gradientUnits="userSpaceOnUse" x1="1582.7325" y1="252.5626" x2="1582.7325" y2="189.5787">
			<stop  offset="0" style="stop-color:#005BEA"/>
			<stop  offset="1" style="stop-color:#00BDF9"/>
		</linearGradient>
		<path class="st13" d="M1581.7,252.6c-1,0-1.9-0.4-2.6-1.1c-3.3-3.4-5-7.7-4.7-12.3c0.3-4.6,2.4-8.7,6.1-11.7
			c2-1.6,3.2-3.9,3.4-6.4s-0.8-4.9-2.6-6.7c-3.3-3.4-5-7.7-4.7-12.3c0.3-4.6,2.4-8.7,6.1-11.7c1.6-1.3,3.9-1,5.2,0.5
			c1.3,1.6,1,3.9-0.5,5.2c-2,1.6-3.2,3.9-3.4,6.4c-0.1,2.5,0.8,4.9,2.6,6.7c3.3,3.4,5,7.7,4.7,12.3s-2.4,8.7-6.1,11.7
			c-2,1.7-3.2,3.9-3.4,6.4c-0.1,2.5,0.8,4.9,2.6,6.7c1.4,1.5,1.4,3.8-0.1,5.2C1583.5,252.2,1582.6,252.6,1581.7,252.6z"/>
	</g>
	<g>
		<linearGradient id="SVGID_11_" gradientUnits="userSpaceOnUse" x1="729.8593" y1="954.417" x2="729.8593" y2="891.433">
			<stop  offset="0" style="stop-color:#005BEA"/>
			<stop  offset="1" style="stop-color:#00BDF9"/>
		</linearGradient>
		<path class="st14" d="M728.8,954.4c-1,0-1.9-0.4-2.6-1.1c-3.3-3.4-5-7.7-4.7-12.3c0.3-4.6,2.4-8.7,6.1-11.7c2-1.6,3.2-3.9,3.4-6.4
			c0.1-2.5-0.8-4.9-2.6-6.7c-3.3-3.4-5-7.7-4.7-12.3c0.3-4.6,2.4-8.7,6.1-11.7c1.6-1.3,3.9-1,5.2,0.5c1.3,1.6,1,3.9-0.5,5.2
			c-2,1.6-3.2,3.9-3.4,6.4c-0.1,2.5,0.8,4.9,2.6,6.7c3.3,3.4,5,7.7,4.7,12.3s-2.4,8.7-6.1,11.7c-2,1.7-3.2,3.9-3.4,6.4
			c-0.1,2.5,0.8,4.9,2.6,6.7c1.4,1.5,1.4,3.8-0.1,5.2C730.7,954.1,729.7,954.4,728.8,954.4z"/>
	</g>
	<linearGradient id="SVGID_12_" gradientUnits="userSpaceOnUse" x1="1658.8939" y1="951.61" x2="1658.8939" y2="903.8561">
		<stop  offset="0" style="stop-color:#005BEA"/>
		<stop  offset="1" style="stop-color:#00BDF9"/>
	</linearGradient>
	<path class="st15" d="M1658.9,911.2c1.9,0,3.8,0.3,5.7,1c4.1,1.5,7.4,4.5,9.3,8.5c1.9,4,2.1,8.5,0.5,12.6
		c-2.4,6.5-8.6,10.9-15.5,10.9c-1.9,0-3.8-0.3-5.6-1c-8.6-3.1-13-12.6-9.9-21.2C1645.8,915.6,1652,911.2,1658.9,911.2L1658.9,911.2
		 M1658.9,903.9c-9.7,0-18.9,6-22.4,15.7c-4.5,12.4,1.9,26.1,14.3,30.6c2.7,1,5.5,1.5,8.2,1.5c9.7,0,18.9-6,22.4-15.7
		c4.5-12.4-1.9-26.1-14.3-30.6C1664.4,904.3,1661.6,903.9,1658.9,903.9L1658.9,903.9z"/>
	<linearGradient id="SVGID_13_" gradientUnits="userSpaceOnUse" x1="1791.1139" y1="167.4198" x2="1791.1139" y2="140.1993">
		<stop  offset="0" style="stop-color:#005BEA"/>
		<stop  offset="1" style="stop-color:#00BDF9"/>
	</linearGradient>
	<path class="st16" d="M1791.1,144.4c3.6,0,6.9,2,8.5,5.3c2.3,4.7,0.4,10.3-4.3,12.6c-1.3,0.6-2.7,1-4.1,1c-3.6,0-6.9-2-8.5-5.3
		c-1.1-2.3-1.3-4.8-0.5-7.2c0.8-2.4,2.5-4.3,4.7-5.4C1788.3,144.7,1789.7,144.4,1791.1,144.4L1791.1,144.4 M1791.1,140.2
		c-2,0-4.1,0.5-6,1.4c-6.7,3.3-9.5,11.5-6.2,18.2c2.4,4.8,7.2,7.6,12.2,7.6c2,0,4.1-0.5,6-1.4c6.7-3.3,9.5-11.5,6.2-18.2
		C1801,143,1796.1,140.2,1791.1,140.2L1791.1,140.2z"/>
	<linearGradient id="SVGID_14_" gradientUnits="userSpaceOnUse" x1="1770.6729" y1="686.3033" x2="1770.6729" y2="597.6912">
		<stop  offset="0" style="stop-color:#005BEA"/>
		<stop  offset="1" style="stop-color:#00BDF9"/>
	</linearGradient>
	<path class="st17" d="M1779.2,614.6l5.2,31.7l-22.3,23.1l-5.2-31.7L1779.2,614.6 M1784.5,597.7l-36,37.4l8.3,51.2l36-37.4
		L1784.5,597.7L1784.5,597.7z"/>
	<g>
		<linearGradient id="SVGID_15_" gradientUnits="userSpaceOnUse" x1="414.204" y1="328.33" x2="414.204" y2="302.2927">
			<stop  offset="0" style="stop-color:#005BEA"/>
			<stop  offset="1" style="stop-color:#00BDF9"/>
		</linearGradient>
		<polygon class="st18" points="417.5,328.3 433.8,305.5 429.3,302.3 416.2,320.6 397.8,307.5 394.6,312 		"/>
	</g>
	<g>
		<linearGradient id="SVGID_16_" gradientUnits="userSpaceOnUse" x1="1286.9517" y1="962.2432" x2="1286.9517" y2="928.1377">
			<stop  offset="0" style="stop-color:#005BEA"/>
			<stop  offset="1" style="stop-color:#00BDF9"/>
		</linearGradient>
		<polygon class="st19" points="1284.6,962.2 1313.9,937.7 1309,931.9 1285.5,951.6 1265.8,928.1 1260,933 		"/>
	</g>
	<g>
		<linearGradient id="SVGID_17_" gradientUnits="userSpaceOnUse" x1="1770.6729" y1="401.6519" x2="1770.6729" y2="372.1904">
			<stop  offset="0" style="stop-color:#005BEA"/>
			<stop  offset="1" style="stop-color:#00BDF9"/>
		</linearGradient>
		<polygon class="st20" points="1755.5,401.7 1766.9,380.2 1788.3,391.7 1791.1,386.4 1764.4,372.2 1750.2,398.9 		"/>
	</g>
	<linearGradient id="SVGID_18_" gradientUnits="userSpaceOnUse" x1="611.7759" y1="158.3438" x2="611.7759" y2="131.1233">
		<stop  offset="0" style="stop-color:#005BEA"/>
		<stop  offset="1" style="stop-color:#00BDF9"/>
	</linearGradient>
	<path class="st21" d="M611.8,154.1c-3.6,0-6.9-2-8.5-5.3c-2.3-4.7-0.4-10.3,4.3-12.6c1.3-0.6,2.7-1,4.1-1c3.6,0,6.9,2,8.5,5.3
		c1.1,2.3,1.3,4.8,0.5,7.2c-0.8,2.4-2.5,4.3-4.7,5.4C614.6,153.8,613.2,154.1,611.8,154.1L611.8,154.1 M611.8,158.3
		c2,0,4.1-0.5,6-1.4c6.7-3.3,9.5-11.5,6.2-18.2c-2.4-4.8-7.2-7.6-12.2-7.6c-2,0-4.1,0.5-6,1.4c-6.7,3.3-9.5,11.5-6.2,18.2
		C601.9,155.6,606.8,158.3,611.8,158.3L611.8,158.3z"/>
</g>
</svg>
